:SAMPLES-PER-SECOND 30
:FULLY-SPECIFIED
:DEGREES
227
root  -79.2076 30.8019 -47.3934 25.729 71.8156 -2.43465
RightUpLeg  -59.6262 -10.6936 1.83523
RightLeg  54.1393 0.868105 0.990674
RightFoot  -8.08833 -0.0107819 0.249415
RightToes  -32.8326 -0.162173 -0.27253
Spine  15.0249 -0.421484 -1.24455
Spine1  22.0454 -1.92055 -0.543566
HEad  -10.88 -4.70081 14.2858
LeftShoulder1  0 -2.42657e-020 -4.95415e-022
LeftArm  -22.9957 -60.822 -83.2294
LeftForeArm  1.22118 -35.0547 -7.08735
LeftHand  0.290634 -3.0812 -11.1694
RightShoulder  0 2.42657e-020 1.07489e-018
RightArm  -0.296517 62.6619 98.7384
RightForeArm  28.7453 35.4321 7.20699
RightHand  -2.86272 19.2297 -16.4166
LeftUpLeg  -54.1575 1.53531 6.56713
LeftLeg  53.7479 -5.06793 -6.03209
LeftFoot  -14.7805 0.220934 1.70323
LeftToes  -21.001 9.37529e-007 1.1992e-007
228
root  -79.2544 30.6501 -47.3819 26.8593 71.8776 -0.929596
RightUpLeg  -59.7452 -10.3203 1.12762
RightLeg  55.0393 0.381107 0.412408
RightFoot  -9.30681 -0.011382 0.27423
RightToes  -31.7124 -0.162303 -0.272299
Spine  14.0855 -0.311821 -1.2815
Spine1  21.3491 -1.70426 -0.510818
HEad  -12.7899 -5.41237 15.4085
LeftShoulder1  0 -2.42657e-020 -4.95415e-022
LeftArm  -19.8642 -53.7279 -81.033
LeftForeArm  5.94633 -41.1295 -8.84919
LeftHand  0.336151 -4.46327 -8.99378
RightShoulder  0 2.42657e-020 1.07489e-018
RightArm  -0.809216 55.4894 86.4319
RightForeArm  30.8365 44.296 9.91976
RightHand  -3.79002 17.2535 -24.244
LeftUpLeg  -54.2805 0.544828 6.53088
LeftLeg  54.2876 -4.47271 -5.43305
LeftFoot  -15.1986 0.212259 1.59085
LeftToes  -21.6201 9.37529e-007 1.1992e-007
229
root  -79.2329 30.6203 -47.3186 27.0186 72.5055 0.0686188
RightUpLeg  -58.7693 -10.419 0.759531
RightLeg  55.1813 -0.0835564 -0.169823
RightFoot  -9.94066 -0.00928946 0.270752
RightToes  -31.4376 -0.162512 -0.272089
Spine  12.6676 -0.279427 -0.946492
Spine1  20.0308 -1.73537 0.118508
HEad  -14.6673 -6.22257 15.66
LeftShoulder1  0 -2.42657e-020 -4.95415e-022
LeftArm  -15.2193 -44.435 -78.3516
LeftForeArm  6.01283 -50.381 -12.3038
LeftHand  0.189462 -4.7879 -4.90657
RightShoulder  0 2.42657e-020 1.07489e-018
RightArm  -0.531023 45.6691 76.6431
RightForeArm  41.1028 55.7401 15.049
RightHand  -4.87484 15.1129 -35.2251
LeftUpLeg  -53.5783 -0.148313 6.57425
LeftLeg  54.3201 -4.50172 -5.47424
LeftFoot  -15.2267 0.217548 1.62744
LeftToes  -21.5518 9.37529e-007 1.1992e-007
230
root  -79.1166 30.6492 -47.1933 26.2183 73.174 0.264404
RightUpLeg  -57.5809 -10.5361 0.687203
RightLeg  55.5454 -0.524494 -0.734186
RightFoot  -9.92014 -0.00617218 0.306451
RightToes  -31.5055 -0.162751 -0.271877
Spine  11.5263 -0.215137 -0.580546
Spine1  18.9321 -1.39458 0.181471
HEad  -16.6498 -5.84805 15.4995
LeftShoulder1  0 -2.42657e-020 -4.95415e-022
LeftArm  -11.0658 -35.7411 -73.3782
LeftForeArm  15.2695 -63.3639 -20.6599
LeftHand  0.137491 -6.27699 -2.88025
RightShoulder  0 2.42657e-020 1.07489e-018
RightArm  0.306645 35.4426 68.6823
RightForeArm  59.5066 70.2671 29.6366
RightHand  -5.55783 13.5607 -44.0648
LeftUpLeg  -52.6057 -0.911203 6.92419
LeftLeg  54.5195 -4.42664 -5.42195
LeftFoot  -14.8782 0.208482 1.59658
LeftToes  -21.6601 9.37529e-007 1.1992e-007
231
root  -78.88 30.6418 -46.9947 26.0366 73.5356 0.773148
RightUpLeg  -56.538 -10.5906 0.571782
RightLeg  55.9998 -0.771919 -1.06731
RightFoot  -10.5039 0.00583678 0.441076
RightToes  -31.4212 -0.16297 -0.271641
Spine  11.0863 -0.0242984 -0.35217
Spine1  18.488 -0.250338 -0.344629
HEad  -18.5144 -4.75882 14.9785
LeftShoulder1  0 -2.42657e-020 -4.95415e-022
LeftArm  -6.43115 -30.6225 -66.3015
LeftForeArm  38.1624 -74.2879 -39.1429
LeftHand  -0.14503 -7.82038 1.75317
RightShoulder  0 2.42657e-020 1.07489e-018
RightArm  0.965756 27.2966 61.8082
RightForeArm  113.181 79.2275 68.9808
RightHand  -6.37 11.8266 -56.1505
LeftUpLeg  -51.9669 -1.13701 7.08047
LeftLeg  55.2743 -4.55009 -5.72303
LeftFoot  -14.3723 0.210524 1.66958
LeftToes  -23.1231 9.37529e-007 1.1992e-007
232
root  -78.5835 30.7086 -46.7641 25.3082 73.5372 0.734787
RightUpLeg  -55.0584 -10.6199 0.666869
RightLeg  55.7672 -0.834981 -1.13887
RightFoot  -10.9646 0.00719626 0.452556
RightToes  -31.0872 -0.16312 -0.27136
Spine  10.8494 -0.104045 -0.293686
Spine1  18.149 -0.271767 -0.472697
HEad  -19.0473 -4.01579 14.8521
LeftShoulder1  0 -2.42657e-020 -4.95415e-022
LeftArm  -1.68899 -29.2536 -56.5217
LeftForeArm  79.2883 -79.5728 -75.4328
LeftHand  -0.810434 -7.55827 11.8637
RightShoulder  0 2.42657e-020 1.07489e-018
RightArm  0.680257 22.6345 57.107
RightForeArm  176.738 78.6105 118.201
RightHand  -6.74711 10.545 -64.8005
LeftUpLeg  -50.567 -1.15059 7.23973
LeftLeg  55.0897 -4.58337 -5.7267
LeftFoot  -14.2262 0.20587 1.64962
LeftToes  -23.9447 9.37529e-007 1.1992e-007
233
root  -78.2542 30.9495 -46.5228 24.1841 73.1789 0.537277
RightUpLeg  -52.7951 -10.4237 0.690262
RightLeg  54.4673 -0.854431 -1.10862
RightFoot  -10.562 0.00401324 0.420995
RightToes  -31.3277 -0.16315 -0.27101
Spine  10.5678 -0.12413 -0.169214
Spine1  17.6134 -0.295544 -0.347025
HEad  -18.2681 -3.68935 13.7876
LeftShoulder1  0 -2.42657e-020 -4.95415e-022
LeftArm  -0.382472 -31.2147 -48.6852
LeftForeArm  110.852 -79.7765 -98.5236
LeftHand  -1.31782 -7.06478 20.757
RightShoulder  0 2.42657e-020 1.07489e-018
RightArm  -0.326472 21.3473 51.2528
RightForeArm  -156.392 74.7551 139.327
RightHand  -6.97548 9.99613 -69.4108
LeftUpLeg  -47.9351 -1.71161 7.63133
LeftLeg  53.3472 -4.36411 -5.12932
LeftFoot  -13.8486 0.17774 1.46347
LeftToes  -24.191 9.37529e-007 1.1992e-007
